<?xml version="1.0" encoding="UTF-8"?>
<svg id="Calque_1" xmlns="http://www.w3.org/2000/svg" version="1.1" viewBox="0 0 566.93 566.93">
  <!-- Generator: Adobe Illustrator 29.6.0, SVG Export Plug-In . SVG Version: 2.1.1 Build 207)  -->
  <defs>
    <style>
      .st0 {
        fill: #35173c;
      }

      .st1 {
        fill: #abddf9;
      }
    </style>
  </defs>
  <path class="st0" d="M305.84,334.19l-4.78-3.39-91.45-64.71c-22.96-16.25-22.96-50.31,0-66.56l120.91-85.58V15.72l-184.87,130.84c-59.51,42.11-59.5,130.41,0,172.52l90.78,64.23,69.41-49.12Z"/>
  <path class="st1" d="M421.28,247.92l-52.83-37.39-37.92-26.83-69.41,49.12h0s0,0,0,0l19.51,13.81,76.7,54.27c3.5,2.47,6.4,5.4,8.83,8.57,13.54,17.68,10.64,44.22-8.83,58l-120.89,85.51v98.23l184.84-130.77c59.52-42.11,59.52-130.41,0-172.52Z"/>
</svg>